<?xml version="1.0" standalone="no"?>
<!DOCTYPE svg PUBLIC "-//W3C//DTD SVG 20010904//EN"
 "http://www.w3.org/TR/2001/REC-SVG-20010904/DTD/svg10.dtd">
<svg version="1.0" xmlns="http://www.w3.org/2000/svg"
 width="1076.000000pt" height="1076.000000pt" viewBox="0 0 1076.000000 1076.000000"
 preserveAspectRatio="xMidYMid meet">
<metadata>
Created by potrace 1.11, written by Peter Selinger 2001-2013
</metadata>
<g transform="translate(0.000000,1076.000000) scale(0.100000,-0.100000)"
fill="#000000" stroke="none">
<path d="M5338 10743 c-15 -10 -158 -129 -318 -265 -236 -202 -296 -248 -320
-248 -23 0 -104 55 -355 240 -271 200 -331 240 -359 240 -44 0 -66 -26 -66
-77 0 -37 138 -1174 143 -1179 1 -1 73 15 161 36 606 147 1301 176 1926 80
140 -21 370 -69 473 -98 48 -14 70 -16 72 -8 5 15 145 1166 145 1189 0 9 -9
26 -20 37 -43 43 -59 34 -403 -219 -178 -131 -334 -242 -346 -246 -14 -4 -31
-1 -45 9 -20 12 -524 436 -591 497 -31 27 -66 32 -97 12z"/>
<path d="M5020 9490 c-486 -40 -942 -145 -1380 -317 -1164 -457 -2105 -1363
-2613 -2513 -389 -883 -496 -1895 -302 -2855 397 -1964 2008 -3481 3985 -3754
245 -33 404 -44 670 -44 266 0 425 11 670 44 1185 164 2278 788 3037 1734
1218 1519 1382 3642 410 5335 -201 351 -430 651 -727 954 -265 270 -465 436
-775 641 -634 422 -1331 673 -2112 761 -161 18 -703 27 -863 14z m930 -545
c472 -54 912 -182 1335 -390 1201 -590 2049 -1741 2274 -3085 83 -499 78
-1025 -15 -1515 -208 -1093 -817 -2041 -1719 -2679 -462 -327 -1061 -576
-1611 -670 -282 -49 -634 -74 -790 -56 -398 44 -732 338 -1007 887 -314 625
-512 1520 -589 2653 -16 244 -16 1088 0 1330 60 884 185 1579 388 2171 168
489 365 834 615 1074 171 166 330 252 532 291 89 17 389 11 587 -11z"/>
<path d="M6815 8155 c-38 -8 -112 -35 -164 -61 -76 -38 -110 -62 -176 -128
-68 -67 -90 -98 -129 -176 -60 -123 -79 -214 -73 -345 15 -305 236 -571 532
-641 94 -22 286 -15 365 14 241 85 405 260 465 492 23 90 21 243 -4 343 -60
230 -237 416 -466 487 -91 28 -252 35 -350 15z"/>
<path d="M5305 7911 c-255 -204 -477 -603 -630 -1136 -351 -1227 -329 -3051
52 -4205 149 -451 346 -783 571 -962 l77 -61 3 1402 2 1401 28 0 c16 0 53 7
83 16 243 72 363 348 250 573 -59 116 -184 206 -305 218 l-56 6 0 1398 c0 770
-3 1399 -7 1399 -5 -1 -35 -22 -68 -49z"/>
<path d="M5823 7200 c-47 -28 -67 -65 -67 -121 0 -83 62 -144 144 -144 52 0
87 19 124 68 28 37 26 115 -4 156 -43 61 -133 80 -197 41z"/>
<path d="M8045 6890 c-77 -12 -208 -77 -272 -134 -264 -238 -235 -666 59 -863
105 -70 168 -88 308 -88 140 0 203 18 307 87 251 169 314 509 142 767 -113
169 -333 263 -544 231z"/>
<path d="M6053 6665 c-277 -60 -462 -329 -424 -612 15 -110 74 -226 156 -308
213 -213 559 -214 771 -1 111 112 157 225 157 386 0 87 -4 117 -25 176 -94
266 -363 418 -635 359z"/>
<path d="M7172 6333 c-135 -66 -86 -273 66 -273 87 0 142 57 142 149 0 39 -6
56 -26 81 -51 59 -117 75 -182 43z"/>
<path d="M6793 5266 c-92 -23 -182 -74 -254 -146 -213 -213 -213 -557 0 -769
110 -109 234 -161 388 -161 151 0 275 52 383 160 109 108 160 232 160 385 0
153 -51 276 -160 385 -109 109 -235 161 -386 159 -44 0 -103 -6 -131 -13z"/>
<path d="M8390 5266 c-179 -50 -329 -201 -384 -385 -20 -67 -21 -217 -2 -287
49 -184 219 -352 396 -393 58 -13 212 -14 270 0 133 30 279 144 344 268 119
227 78 494 -103 663 -71 68 -147 111 -232 133 -66 18 -227 18 -289 1z"/>
<path d="M7702 4860 c-125 -76 -73 -270 73 -270 78 0 145 67 145 145 0 78 -67
145 -145 145 -22 0 -54 -9 -73 -20z"/>
<path d="M6030 3926 c-149 -43 -280 -148 -345 -276 -87 -172 -78 -389 23 -545
194 -301 613 -343 854 -86 195 206 207 506 29 727 -50 63 -155 136 -236 166
-74 27 -254 35 -325 14z"/>
<path d="M8001 3704 c-197 -53 -349 -209 -396 -406 -65 -274 89 -551 359 -646
92 -33 241 -36 326 -8 158 53 271 148 339 287 181 369 -84 792 -494 788 -44 0
-104 -7 -134 -15z"/>
<path d="M7192 3490 c-58 -13 -112 -82 -112 -142 0 -47 39 -106 86 -128 100
-49 204 18 204 132 0 94 -85 159 -178 138z"/>
<path d="M5886 2651 c-45 -30 -66 -70 -66 -128 0 -41 5 -58 26 -83 38 -45 79
-63 130 -57 141 15 182 194 61 267 -42 26 -113 26 -151 1z"/>
<path d="M6825 2660 c-134 -27 -241 -86 -351 -195 -67 -66 -89 -97 -128 -175
-60 -123 -79 -214 -73 -345 18 -367 320 -654 690 -655 314 -1 590 213 667 516
24 95 26 251 4 344 -55 237 -257 438 -502 501 -79 20 -229 24 -307 9z"/>
</g>
</svg>
