<?xml version="1.0" encoding="iso-8859-1"?>
<!-- Generator: Adobe Illustrator 19.0.0, SVG Export Plug-In . SVG Version: 6.00 Build 0)  -->
<svg version="1.1" id="Layer_1" xmlns="http://www.w3.org/2000/svg" xmlns:xlink="http://www.w3.org/1999/xlink" x="0px" y="0px"
	 viewBox="0 0 460 460" style="enable-background:new 0 0 460 460;" xml:space="preserve">
<g>
	<g>
		<g>
			<path d="M429.636,0H139.664c-15.655,0-28.346,12.691-28.346,28.347v34.529h209.018c43.2,0,78.347,35.146,78.347,78.347v205.901
				h30.954c15.655,0,28.346-12.691,28.346-28.347V28.347C457.982,12.691,445.291,0,429.636,0z"/>
			<path d="M320.336,112.876H30.364c-15.655,0-28.347,12.691-28.347,28.347v290.431C2.018,447.309,14.709,460,30.364,460h289.971
				c15.655,0,28.347-12.691,28.347-28.347v-290.43C348.682,125.567,335.991,112.876,320.336,112.876z"/>
		</g>
	</g>
</g>
<g>
</g>
<g>
</g>
<g>
</g>
<g>
</g>
<g>
</g>
<g>
</g>
<g>
</g>
<g>
</g>
<g>
</g>
<g>
</g>
<g>
</g>
<g>
</g>
<g>
</g>
<g>
</g>
<g>
</g>
</svg>
